<svg xmlns="http://www.w3.org/2000/svg" version="1.1" xmlns:xlink="http://www.w3.org/1999/xlink" xmlns:svgjs="http://svgjs.dev/svgjs" viewBox="0 0 800 800"><defs><linearGradient x1="50%" y1="0%" x2="50%" y2="100%" id="cccloud-grad"><stop stop-color="hsla(202, 77%, 50%, 0.27)" stop-opacity="1" offset="0%"></stop><stop stop-color="hsla(51, 19%, 86%, 0.67)" stop-opacity="1" offset="100%"></stop></linearGradient></defs><g fill="url(#cccloud-grad)" stroke-width="1" stroke="hsla(202, 36%, 45%, 1)" id="cloud" transform="matrix(1,0,0,1,0,30)"><path d="M 185.60210183028767 407.59162527353976 A  1 1 0 1 1 212.56545005918167 256.54451508047697 A  1 1 0 1 1 346.8586374652324 168.58638152277285 A  1 1 0 1 1 509.16227857979175 209.94762927949114 A  1 1 0 1 1 602.0943057075222 327.7486877441406 A  1 1 0 1 1 503.926668656434 476.96332665887803 A  1 1 0 1 1 336.38742832363596 500.26180007694893 A  1 1 0 1 1 185.60210183028767 407.59162527353976 Z" stroke-linecap="round" stroke-linejoin="round"></path></g></svg>