<svg xmlns="http://www.w3.org/2000/svg" version="1.1" xmlns:xlink="http://www.w3.org/1999/xlink" xmlns:svgjs="http://svgjs.dev/svgjs" viewBox="0 0 800 800"><defs><linearGradient x1="50%" y1="0%" x2="50%" y2="100%" id="cccloud-grad"><stop stop-color="hsla(202, 77%, 50%, 0.27)" stop-opacity="1" offset="0%"></stop><stop stop-color="hsla(51, 19%, 86%, 0.67)" stop-opacity="1" offset="100%"></stop></linearGradient></defs><g fill="url(#cccloud-grad)" stroke-width="1" stroke="hsla(202, 36%, 45%, 1)" id="cloud" transform="matrix(1,0,0,1,0,50)"><path d="M 128.0104701256878 336.3874206542969 A  50 50 0 1 1 236.6492156982422 176.96334830878294 A  50 50 0 1 1 419.10994620597796 152.87958762283728 A  50 50 0 1 1 601.3088621768652 257.0680770474579 A  50 50 0 1 1 579.0576235786157 447.1204313108435 A  50 50 0 1 1 426.43979361169636 547.1203945619274 A  50 50 0 1 1 239.00523376464844 500.26179256738794 A  50 50 0 1 1 128.0104701256878 336.3874206542969 Z" stroke-linecap="round" stroke-linejoin="round"></path></g></svg>